<?xml version="1.0" ?>
<!-- Uploaded to: SVG Repo, www.svgrepo.com, Generator: SVG Repo Mixer Tools -->
<svg width="800px" height="800px" viewBox="0 0 32 32" xmlns="http://www.w3.org/2000/svg">
<defs>
<style>.cls-1{fill:#ff005c;}</style>
</defs>
<title/>
<g data-name="Layer 14" id="Layer_14">
<polygon class="cls-1" points="8 20 24 15 24 20 20 24 12 24 8 20"/>
<path d="M24,2H8L7,3V19.63l.24.64L11,24.65l.76.35H12v1l1,1h2v3h2V27h2l1-1V25h.29l.76-.35,3.71-4.38.24-.64V3ZM23,8v2H21v2h2v2H21v2h2v3.26L19.82,23H12.18L9,19.26V4H23V6H21V8Z"/>
<path d="M15.22,9.4c-.66.88-3.87,5.39-2.57,8C13,18.12,13.89,19,16,19s3-.9,3.4-1.65c1.31-2.61-1.88-7.08-2.53-8Zm2.34,7c-.22.46-1,.55-1.61.55s-1.3-.09-1.52-.51c-.44-.88.53-3,1.59-4.72C17.07,13.45,18,15.56,17.56,16.45Z"/>
</g>
</svg>